# xmcd CD database file
#
# Track frame offsets:
#	150
#	20622
#	38577
#	57820
#	79142
#	97740
#	121250
#	130540
#	152150
#	176397
#
# Disc length: 2506 seconds
#
# Revision: 0
# Processed by: cddbd v1.5.2PL0 Copyright (c) Steve Scherf et al.
# Submitted via: CDex 1.51
#
DISCID=6a09c80a
DTITLE=Sofia Pettersson - Still Here
DYEAR=2006
DGENRE=Jazz
TTITLE0=A Beautiful Story
TTITLE1=Warm Dreams
TTITLE2=Another Christmas
TTITLE3=When Not Thinking Of You
TTITLE4=God Knows
TTITLE5=Better Days
TTITLE6=For My Friends
TTITLE7=I'll Find It
TTITLE8=What I've Seen
TTITLE9=Still Here
EXTD=YEAR: 2006
EXTT0=
EXTT1=
EXTT2=
EXTT3=
EXTT4=
EXTT5=
EXTT6=
EXTT7=
EXTT8=
EXTT9=
PLAYORDER=
